<?xml version="1.0" encoding="iso-8859-1"?>
<!-- Generator: Adobe Illustrator 18.1.1, SVG Export Plug-In . SVG Version: 6.00 Build 0)  -->
<svg version="1.1" id="Capa_1" xmlns="http://www.w3.org/2000/svg" xmlns:xlink="http://www.w3.org/1999/xlink" x="0px" y="0px"
	 viewBox="0 0 202.219 202.219" style="enable-background:new 0 0 202.219 202.219;" xml:space="preserve">
<g>
	<path  d="M202.219,95.172c0-16.949-15.275-30.513-32.664-27.489c-6.181-10.017-18.399-15.3-30.12-12.515
		c-4.985-8.686-14.119-14.018-24.179-14.018c-9.87,0-18.492,5.193-23.449,12.984c-6.08-3.951-13.235-6.216-20.807-6.216
		c-20.607,0-37.46,16.341-38.276,36.934C13.961,87.582,0,103.608,0,122.758c0,21.122,17.189,38.312,38.315,38.312h115.289
		c21.122,0,38.312-17.189,38.312-38.312c0-1.929-0.197-3.815-0.476-5.669C197.975,111.989,202.219,104.091,202.219,95.172z
		 M153.604,157.494H38.315c-19.154,0-34.736-15.582-34.736-34.733c0-17.844,13.367-32.696,31.089-34.547l1.593-0.372v-1.61
		c0-19.154,15.582-34.736,34.74-34.736c13.127,0,24.988,7.297,30.957,19.039l0.673,1.321l1.417-0.412
		c3.196-0.927,6.453-1.396,9.681-1.396c12.615,0,24.261,6.871,30.392,17.934l0.651,1.167l1.299-0.286
		c22.278-4.914,42.27,12.279,42.27,33.895C188.337,141.912,172.758,157.494,153.604,157.494z M190.638,113.135
		c-4.871-18.639-23.438-31.88-44.052-28.03c-6.914-11.531-19.383-18.635-32.861-18.635c-3.096,0-6.199,0.387-9.269,1.152
		c-2.509-4.52-5.837-8.385-9.738-11.474c4.309-6.836,11.871-11.42,20.539-11.42c9.19,0,17.497,5.111,21.677,13.338l0.673,1.321
		l1.424-0.412c10.966-3.192,22.668,1.854,28.058,11.578l0.651,1.167l1.299-0.286c15.657-3.429,29.601,8.604,29.601,23.739
		C198.641,102.301,195.545,108.69,190.638,113.135z"/>
</g>
<g>
</g>
<g>
</g>
<g>
</g>
<g>
</g>
<g>
</g>
<g>
</g>
<g>
</g>
<g>
</g>
<g>
</g>
<g>
</g>
<g>
</g>
<g>
</g>
<g>
</g>
<g>
</g>
<g>
</g>
</svg>
